<mxfile host="app.diagrams.net" agent="Mozilla/5.0 (Windows NT 10.0; Win64; x64) AppleWebKit/537.36 (KHTML, like Gecko) Chrome/137.0.0.0 Safari/537.36" version="27.1.5" pages="2">
  <diagram name="Home Automation Overview" id="a1sEvhZwskeDAmtogCCI">
    <mxGraphModel dx="1042" dy="527" grid="1" gridSize="10" guides="1" tooltips="1" connect="1" arrows="1" fold="1" page="1" pageScale="1" pageWidth="850" pageHeight="1100" math="0" shadow="0">
      <root>
        <mxCell id="0" />
        <mxCell id="1" parent="0" />
        <mxCell id="qMVuq-Pvuoe0GWZHZNyU-10" style="edgeStyle=orthogonalEdgeStyle;rounded=0;orthogonalLoop=1;jettySize=auto;html=1;exitX=1;exitY=0.5;exitDx=0;exitDy=0;entryX=0;entryY=0.5;entryDx=0;entryDy=0;" edge="1" parent="1" source="qMVuq-Pvuoe0GWZHZNyU-1" target="qMVuq-Pvuoe0GWZHZNyU-5">
          <mxGeometry relative="1" as="geometry" />
        </mxCell>
        <mxCell id="qMVuq-Pvuoe0GWZHZNyU-11" style="edgeStyle=orthogonalEdgeStyle;rounded=0;orthogonalLoop=1;jettySize=auto;html=1;exitX=1;exitY=0.5;exitDx=0;exitDy=0;entryX=0;entryY=0.5;entryDx=0;entryDy=0;" edge="1" parent="1" source="qMVuq-Pvuoe0GWZHZNyU-1" target="qMVuq-Pvuoe0GWZHZNyU-2">
          <mxGeometry relative="1" as="geometry" />
        </mxCell>
        <mxCell id="qMVuq-Pvuoe0GWZHZNyU-12" style="edgeStyle=orthogonalEdgeStyle;rounded=0;orthogonalLoop=1;jettySize=auto;html=1;exitX=1;exitY=0.5;exitDx=0;exitDy=0;entryX=0;entryY=0.5;entryDx=0;entryDy=0;" edge="1" parent="1" source="qMVuq-Pvuoe0GWZHZNyU-1" target="qMVuq-Pvuoe0GWZHZNyU-7">
          <mxGeometry relative="1" as="geometry" />
        </mxCell>
        <mxCell id="qMVuq-Pvuoe0GWZHZNyU-1" value="Webserver" style="whiteSpace=wrap;html=1;aspect=fixed;" vertex="1" parent="1">
          <mxGeometry x="360" y="190" width="130" height="130" as="geometry" />
        </mxCell>
        <mxCell id="qMVuq-Pvuoe0GWZHZNyU-2" value="Smart Device" style="whiteSpace=wrap;html=1;aspect=fixed;" vertex="1" parent="1">
          <mxGeometry x="600" y="215" width="80" height="80" as="geometry" />
        </mxCell>
        <mxCell id="qMVuq-Pvuoe0GWZHZNyU-5" value="Smart Device" style="whiteSpace=wrap;html=1;aspect=fixed;" vertex="1" parent="1">
          <mxGeometry x="600" y="80" width="80" height="80" as="geometry" />
        </mxCell>
        <mxCell id="qMVuq-Pvuoe0GWZHZNyU-7" value="Smart Device" style="whiteSpace=wrap;html=1;aspect=fixed;" vertex="1" parent="1">
          <mxGeometry x="600" y="360" width="80" height="80" as="geometry" />
        </mxCell>
        <mxCell id="qMVuq-Pvuoe0GWZHZNyU-9" style="edgeStyle=orthogonalEdgeStyle;rounded=0;orthogonalLoop=1;jettySize=auto;html=1;exitX=1;exitY=0.5;exitDx=0;exitDy=0;entryX=0;entryY=0.5;entryDx=0;entryDy=0;" edge="1" parent="1" source="qMVuq-Pvuoe0GWZHZNyU-8" target="qMVuq-Pvuoe0GWZHZNyU-1">
          <mxGeometry relative="1" as="geometry" />
        </mxCell>
        <mxCell id="qMVuq-Pvuoe0GWZHZNyU-8" value="Client" style="rounded=0;whiteSpace=wrap;html=1;" vertex="1" parent="1">
          <mxGeometry x="150" y="225" width="120" height="60" as="geometry" />
        </mxCell>
      </root>
    </mxGraphModel>
  </diagram>
  <diagram id="FXDV4r9nwObyAtEh82y8" name="Page-2">
    <mxGraphModel dx="1042" dy="527" grid="1" gridSize="10" guides="1" tooltips="1" connect="1" arrows="1" fold="1" page="1" pageScale="1" pageWidth="850" pageHeight="1100" math="0" shadow="0">
      <root>
        <mxCell id="0" />
        <mxCell id="1" parent="0" />
        <mxCell id="txR1ooVXIIHxhCJ63bGl-1" value="Landing Page" style="whiteSpace=wrap;html=1;aspect=fixed;align=left;verticalAlign=top;" vertex="1" parent="1">
          <mxGeometry x="120" y="140" width="290" height="290" as="geometry" />
        </mxCell>
        <mxCell id="txR1ooVXIIHxhCJ63bGl-3" value="Categories" style="rounded=0;whiteSpace=wrap;html=1;" vertex="1" parent="1">
          <mxGeometry x="130" y="190" width="120" height="210" as="geometry" />
        </mxCell>
        <mxCell id="txR1ooVXIIHxhCJ63bGl-4" value="Home Lay Out" style="rounded=0;whiteSpace=wrap;html=1;" vertex="1" parent="1">
          <mxGeometry x="260" y="205" width="130" height="180" as="geometry" />
        </mxCell>
        <mxCell id="txR1ooVXIIHxhCJ63bGl-5" value="Settings" style="rounded=0;whiteSpace=wrap;html=1;" vertex="1" parent="1">
          <mxGeometry x="260" y="145" width="130" height="45" as="geometry" />
        </mxCell>
      </root>
    </mxGraphModel>
  </diagram>
</mxfile>
